<svg width="32" height="32" viewBox="0 0 32 32" fill="none" xmlns="http://www.w3.org/2000/svg">
<path fill-rule="evenodd" clip-rule="evenodd" d="M16 5.02953C9.9412 5.02953 5.02956 9.94117 5.02956 16C5.02956 22.0588 9.9412 26.9705 16 26.9705C22.0588 26.9705 26.9705 22.0588 26.9705 16C26.9705 9.94117 22.0588 5.02953 16 5.02953ZM2.66669 16C2.66669 8.63619 8.63622 2.66666 16 2.66666C23.3638 2.66666 29.3334 8.63619 29.3334 16C29.3334 23.3638 23.3638 29.3333 16 29.3333C8.63622 29.3333 2.66669 23.3638 2.66669 16Z" fill="#FFCC00"/>
<path fill-rule="evenodd" clip-rule="evenodd" d="M16.0002 10.5998C16.7459 10.5998 17.3504 11.2043 17.3504 11.95V16.8107C17.3504 17.5564 16.7459 18.161 16.0002 18.161C15.2545 18.161 14.65 17.5564 14.65 16.8107V11.95C14.65 11.2043 15.2545 10.5998 16.0002 10.5998Z" fill="#FFCC00"/>
<path fill-rule="evenodd" clip-rule="evenodd" d="M14.65 20.8603C14.65 20.1146 15.2545 19.5101 16.0002 19.5101H16.0123C16.758 19.5101 17.3625 20.1146 17.3625 20.8603C17.3625 21.606 16.758 22.2106 16.0123 22.2106H16.0002C15.2545 22.2106 14.65 21.606 14.65 20.8603Z" fill="#FFCC00"/>
</svg>
