<svg width="32" height="32" viewBox="0 0 32 32" fill="none" xmlns="http://www.w3.org/2000/svg">
<path fill-rule="evenodd" clip-rule="evenodd" d="M16.0001 2.66675C8.63629 2.66675 2.66675 8.63629 2.66675 16.0001C2.66675 23.3639 8.63629 29.3334 16.0001 29.3334C23.3639 29.3334 29.3334 23.3639 29.3334 16.0001C29.3334 8.63629 23.3639 2.66675 16.0001 2.66675ZM22.5117 11.0394C22.8286 10.5005 22.6486 9.80668 22.1096 9.48978C21.5706 9.17289 20.8768 9.35291 20.5599 9.89187L14.91 19.501L11.3701 14.8147C10.9933 14.3158 10.2834 14.2169 9.7845 14.5937C9.28562 14.9706 9.18668 15.6805 9.56353 16.1794L14.1242 22.217C14.3521 22.5187 14.7154 22.6867 15.0928 22.6649C15.4702 22.6431 15.8118 22.4343 16.0034 22.1085L22.5117 11.0394Z" fill="#34C759"/>
</svg>
