<svg width="32" height="32" viewBox="0 0 32 32" fill="none" xmlns="http://www.w3.org/2000/svg">
<path fill-rule="evenodd" clip-rule="evenodd" d="M10.1631 2.98333C10.3659 2.78059 10.6409 2.66669 10.9276 2.66669H21.0725C21.3592 2.66669 21.6341 2.78059 21.8369 2.98333L29.0167 10.1631C29.2195 10.3659 29.3334 10.6409 29.3334 10.9276V21.0725C29.3334 21.3592 29.2195 21.6341 29.0167 21.8369L21.8369 29.0167C21.6341 29.2195 21.3592 29.3334 21.0725 29.3334H10.9276C10.6409 29.3334 10.3659 29.2195 10.1631 29.0167L2.98333 21.8369C2.78059 21.6341 2.66669 21.3592 2.66669 21.0725V10.9276C2.66669 10.6409 2.78059 10.3659 2.98333 10.1631L10.1631 2.98333ZM11.3754 4.82885L4.82885 11.3754V20.6247L11.3754 27.1712H20.6247L27.1712 20.6247V11.3754L20.6247 4.82885H11.3754Z" fill="#FF3E33"/>
<path fill-rule="evenodd" clip-rule="evenodd" d="M16 9.83773C16.6966 9.83773 17.2613 10.4024 17.2613 11.099V16.6323C17.2613 17.3288 16.6966 17.8935 16 17.8935C15.3034 17.8935 14.7388 17.3288 14.7388 16.6323V11.099C14.7388 10.4024 15.3034 9.83773 16 9.83773ZM14.7388 20.6285C14.7388 19.9319 15.3034 19.3673 16 19.3673H16.013C16.7096 19.3673 17.2743 19.9319 17.2743 20.6285C17.2743 21.3251 16.7096 21.8898 16.013 21.8898H16C15.3034 21.8898 14.7388 21.3251 14.7388 20.6285Z" fill="#FF3E33"/>
</svg>
